<svg width="29" height="29" viewBox="0 0 29 29" fill="none" xmlns="http://www.w3.org/2000/svg">
<path d="M2.60427 22.8485H26.3965L28.9686 8.51405C29.0257 8.19605 29.0046 7.86418 28.908 7.56115C28.8115 7.25812 28.6439 6.9978 28.4268 6.81369C28.2098 6.62957 27.9532 6.5301 27.6901 6.52806C27.427 6.52602 27.1694 6.62151 26.9505 6.80224L20.2835 12.3047L15.6789 0.902C15.5694 0.630953 15.4012 0.403005 15.1929 0.243694C14.9847 0.084382 14.7448 0 14.5 0C14.2552 0 14.0153 0.084382 13.807 0.243694C13.5988 0.403005 13.4305 0.630953 13.321 0.902L8.71649 12.3047L2.04931 6.80224C1.83041 6.62158 1.57286 6.52614 1.30978 6.52822C1.04671 6.53029 0.790156 6.62978 0.57313 6.81388C0.356104 6.99798 0.188536 7.25827 0.0919847 7.56126C-0.00456663 7.86425 -0.0256836 8.19608 0.0313509 8.51405L2.60427 22.8485Z" fill="url(#paint0_linear)"/>
<path d="M2.41663 24.606V27.5352C2.41663 27.9237 2.55808 28.2962 2.80986 28.5709C3.06165 28.8456 3.40314 28.9999 3.75922 28.9999H25.2407C25.5968 28.9999 25.9383 28.8456 26.1901 28.5709C26.4418 28.2962 26.5833 27.9237 26.5833 27.5352V24.606H2.41663Z" fill="url(#paint1_linear)"/>
<defs>
<linearGradient id="paint0_linear" x1="0" y1="11.4242" x2="29" y2="11.4242" gradientUnits="userSpaceOnUse">
<stop stop-color="#C29219"/>
<stop offset="1" stop-color="#FAEB93"/>
</linearGradient>
<linearGradient id="paint1_linear" x1="2.41663" y1="26.3635" x2="26.5833" y2="26.3635" gradientUnits="userSpaceOnUse">
<stop stop-color="#C19117"/>
<stop offset="1" stop-color="#F6E48A"/>
</linearGradient>
</defs>
</svg>
