<svg width="38" height="13" viewBox="0 0 38 13" fill="none" xmlns="http://www.w3.org/2000/svg">
<g clip-path="url(#clip0)">
<path d="M16.4666 12.1209H13.3884L15.3138 0.21583H18.3918L16.4666 12.1209ZM27.6256 0.506897C27.0185 0.265988 26.0555 0 24.8647 0C21.8248 0 19.6841 1.62104 19.671 3.93863C19.6458 5.64855 21.2036 6.59828 22.3689 7.16841C23.5598 7.751 23.9646 8.13128 23.9646 8.65057C23.9525 9.44811 23.0023 9.81575 22.116 9.81575C20.887 9.81575 20.2285 9.62621 19.2278 9.18247L18.8224 8.99229L18.3917 11.6647C19.1136 11.9936 20.4438 12.2855 21.8248 12.2983C25.0547 12.2983 27.1575 10.7024 27.1824 8.23259C27.1947 6.87734 26.3721 5.83893 24.5985 4.99039C23.5219 4.44564 22.8625 4.07835 22.8625 3.52099C22.8751 3.01433 23.4202 2.49538 24.6356 2.49538C25.6363 2.46992 26.3716 2.71049 26.9286 2.95121L27.207 3.07763L27.6256 0.506897ZM31.7169 7.90333C31.9704 7.2194 32.9459 4.57241 32.9459 4.57241C32.9331 4.59783 33.1989 3.87586 33.3509 3.43265L33.566 4.45845C33.566 4.45845 34.1489 7.30813 34.2755 7.90337H31.7169V7.90333ZM35.5166 0.215868H33.1356C32.4014 0.215868 31.8435 0.431014 31.5267 1.20363L26.9543 12.1207H30.1843C30.1843 12.1207 30.716 10.6514 30.8303 10.3349H34.7825C34.8709 10.7529 35.1498 12.1207 35.1498 12.1207H38L35.5166 0.215868H35.5166ZM10.8173 0.215868L7.80265 8.33393L7.4732 6.68746C6.91592 4.7877 5.16796 2.72364 3.21732 1.69731L5.97862 12.1083H9.23381L14.0723 0.21583H10.8173V0.215868Z" fill="url(#paint0_linear)"/>
<path d="M5.00331 0.215858H0.0506517L0 0.456387C3.86336 1.4443 6.42201 3.82569 7.47323 6.68799L6.39659 1.21654C6.21933 0.456197 5.67462 0.240899 5.00331 0.21582V0.215858Z" fill="#22275F"/>
</g>
<defs>
<linearGradient id="paint0_linear" x1="2.99998" y1="6" x2="38" y2="6" gradientUnits="userSpaceOnUse">
<stop stop-color="#22265D"/>
<stop offset="1" stop-color="#2548A1"/>
</linearGradient>
<clipPath id="clip0">
<rect width="38" height="12.2982" fill="white"/>
</clipPath>
</defs>
</svg>
