<svg width="23" height="16" viewBox="0 0 23 16" fill="none" xmlns="http://www.w3.org/2000/svg">
<path d="M2.39582 0H20.6041C21.9273 0 23 1.11928 23 2.49998V13.5C23 14.8807 21.9273 16 20.6041 16H2.39582C1.07264 16 0 14.8807 0 13.5V2.50003C0 1.11928 1.07264 0 2.39582 0Z" fill="#5589F1"/>
<path d="M23 3H0V6.99998H23V3Z" fill="#90B3F5"/>
<path d="M7.1875 11H3.35418C3.08955 11 2.875 10.7762 2.875 10.5C2.875 10.2239 3.08955 10 3.35418 10H7.1875C7.45213 10 7.66668 10.2239 7.66668 10.5C7.66668 10.7762 7.45213 11 7.1875 11Z" fill="#CEDEFA"/>
<path d="M10.0625 13H3.35418C3.08955 13 2.875 12.7762 2.875 12.5C2.875 12.2239 3.08955 12 3.35418 12H10.0625C10.3271 12 10.5417 12.2239 10.5417 12.5C10.5417 12.7762 10.3271 13 10.0625 13Z" fill="#CEDEFA"/>
</svg>
