<svg width="17" height="17" viewBox="0 0 17 17" fill="none" xmlns="http://www.w3.org/2000/svg">
<path d="M5.1463 6.98398C4.91137 6.72771 4.50562 6.70633 4.24931 6.94126C3.99304 7.17619 3.97166 7.58195 4.20659 7.83825L7.43148 11.3408C7.55963 11.4689 7.70912 11.5543 7.87995 11.5543C7.87995 11.5543 7.87995 11.5543 7.90129 11.5543C8.07216 11.5543 8.24299 11.4903 8.34976 11.3621L16.5081 3.22518C16.7644 2.96891 16.7644 2.56311 16.5081 2.32819C16.2519 2.07192 15.8461 2.07192 15.6111 2.32819L7.92271 9.99528L5.1463 6.98398Z" fill="#4DCFE0"/>
<path d="M5.1463 6.98398C4.91137 6.72771 4.50562 6.70633 4.24931 6.94126C3.99304 7.17619 3.97166 7.58195 4.20659 7.83825L7.43148 11.3408C7.55963 11.4689 7.70912 11.5543 7.87995 11.5543C7.87995 11.5543 7.87995 11.5543 7.90129 11.5543C8.07216 11.5543 8.24299 11.4903 8.34976 11.3621L16.5081 3.22518C16.7644 2.96891 16.7644 2.56311 16.5081 2.32819C16.2519 2.07192 15.8461 2.07192 15.6111 2.32819L7.92271 9.99528L5.1463 6.98398Z" fill="url(#paint0_linear)"/>
<path d="M16.3593 7.85931C15.9963 7.85931 15.7187 8.13695 15.7187 8.49999C15.7187 12.4723 12.4724 15.7186 8.50003 15.7186C4.52764 15.7186 1.28141 12.4724 1.28141 8.50003C1.28141 4.52768 4.52764 1.28141 8.50003 1.28141C8.86312 1.28141 9.14072 1.00377 9.14072 0.640727C9.14072 0.277686 8.86308 0 8.50003 0C3.82286 0 0 3.82286 0 8.50003C0 13.1772 3.82286 17.0001 8.50003 17.0001C13.1772 17.0001 17.0001 13.1772 17.0001 8.50003C17 8.13695 16.7224 7.85931 16.3593 7.85931Z" fill="#4DCFE0"/>
<path d="M16.3593 7.85931C15.9963 7.85931 15.7187 8.13695 15.7187 8.49999C15.7187 12.4723 12.4724 15.7186 8.50003 15.7186C4.52764 15.7186 1.28141 12.4724 1.28141 8.50003C1.28141 4.52768 4.52764 1.28141 8.50003 1.28141C8.86312 1.28141 9.14072 1.00377 9.14072 0.640727C9.14072 0.277686 8.86308 0 8.50003 0C3.82286 0 0 3.82286 0 8.50003C0 13.1772 3.82286 17.0001 8.50003 17.0001C13.1772 17.0001 17.0001 13.1772 17.0001 8.50003C17 8.13695 16.7224 7.85931 16.3593 7.85931Z" fill="url(#paint1_linear)"/>
<defs>
<linearGradient id="paint0_linear" x1="10.3716" y1="2.13599" x2="10.3716" y2="11.5543" gradientUnits="userSpaceOnUse">
<stop stop-color="white"/>
<stop offset="0.0001" stop-color="#01C99B"/>
<stop offset="1" stop-color="#4792F1"/>
</linearGradient>
<linearGradient id="paint1_linear" x1="8.50003" y1="0" x2="8.50003" y2="17.0001" gradientUnits="userSpaceOnUse">
<stop stop-color="white"/>
<stop offset="0.0001" stop-color="#01C99B"/>
<stop offset="1" stop-color="#4792F1"/>
</linearGradient>
</defs>
</svg>
