<svg width="27" height="18" viewBox="0 0 27 18" fill="none" xmlns="http://www.w3.org/2000/svg">
<path d="M9.84937 1.82324H17.1492V15.2274H9.84937V1.82324Z" fill="#FF5F00"/>
<path d="M10.3125 8.52564C10.3125 5.80218 11.5639 3.38658 13.4873 1.82354C12.0737 0.686791 10.2893 0 8.34267 0C3.73107 0 0 3.81285 0 8.52564C0 13.2384 3.73104 17.0513 8.34267 17.0513C10.2893 17.0513 12.0737 16.3645 13.4873 15.2278C11.5639 13.6884 10.3125 11.2491 10.3125 8.52567V8.52564Z" fill="#EB001B"/>
<path d="M27 8.52564C27 13.2384 23.269 17.0513 18.6574 17.0513C16.7107 17.0513 14.9263 16.3645 13.5127 15.2278C15.4593 13.6647 16.6876 11.2491 16.6876 8.52567C16.6876 5.80218 15.4361 3.38658 13.5127 1.82354C14.9263 0.686791 16.7108 0 18.6574 0C23.269 0 27 3.83655 27 8.52564Z" fill="#F79E1B"/>
</svg>
