<svg width="37" height="11" viewBox="0 0 37 11" fill="none" xmlns="http://www.w3.org/2000/svg">
<path fill-rule="evenodd" clip-rule="evenodd" d="M3.42144 0.0016936C3.75202 -0.000198442 4.73441 -0.0887038 5.15056 1.31561C5.4309 2.26163 5.87742 3.81132 6.49012 5.96457H6.73956C7.39673 3.69443 7.84808 2.14475 8.09373 1.31572C8.51419 -0.103315 9.56532 0.00179876 9.98578 0.00179876H13.2297V10.0927H9.92344V4.14579H9.70165L7.8586 10.0925H5.37109L3.52803 4.14148H3.30624V10.0926H0V0.0016936H3.42144ZM17.9774 0.0016936V5.9529H18.2412L20.4831 1.05934C20.9183 0.0854689 21.8458 0.00179876 21.8458 0.00179876H25.0454V10.0927H21.6701V4.14148H21.4062L19.2083 9.03514C18.7732 10.0045 17.8016 10.0926 17.8016 10.0926H14.602V0.0016936H17.9774ZM36.712 4.79697C36.2411 6.13117 34.7626 7.08676 33.1255 7.08676H29.586V10.0927H26.3761V4.79707L36.712 4.79697Z" fill="#4DB45E"/>
<path fill-rule="evenodd" clip-rule="evenodd" d="M33.2803 0.00146484H26.2079C26.3763 2.24805 28.3109 4.17131 30.3137 4.17131H36.935C37.3171 2.30408 36.0017 0.00146484 33.2804 0.00146484H33.2803Z" fill="url(#paint0_linear)"/>
<defs>
<linearGradient id="paint0_linear" x1="37" y1="2.62447" x2="26.2079" y2="2.62447" gradientUnits="userSpaceOnUse">
<stop stop-color="#1F5CD7"/>
<stop offset="1" stop-color="#02AEFF"/>
</linearGradient>
</defs>
</svg>
