<svg width="22" height="22" viewBox="0 0 22 22" fill="none" xmlns="http://www.w3.org/2000/svg">
<rect width="22" height="22" rx="11" fill="#5589F1"/>
<g clip-path="url(#clip0)">
<path d="M6.60109 10.2978C6.642 10.2912 6.68341 10.2881 6.72484 10.2886H13.7796L13.6258 10.2171C13.4754 10.1459 13.3387 10.0491 13.2216 9.93089L11.2432 7.95255C10.9827 7.70382 10.9389 7.30371 11.1395 7.00452C11.3729 6.6857 11.8206 6.61647 12.1395 6.84993C12.1652 6.8688 12.1897 6.88937 12.2127 6.9115L15.7902 10.489C16.0698 10.7682 16.07 11.2213 15.7907 11.5008C15.7906 11.501 15.7904 11.5012 15.7902 11.5014L12.2127 15.0789C11.9329 15.3579 11.4799 15.3573 11.2008 15.0775C11.1789 15.0554 11.1584 15.032 11.1395 15.0073C10.9389 14.7081 10.9827 14.308 11.2432 14.0593L13.218 12.0774C13.323 11.9723 13.4437 11.8842 13.5757 11.8162L13.7904 11.7196H6.76422C6.39871 11.7332 6.07804 11.4779 6.00937 11.1186C5.94612 10.7286 6.21103 10.3611 6.60109 10.2978Z" fill="white"/>
</g>
<defs>
<clipPath id="clip0">
<rect width="10" height="10" fill="white" transform="matrix(-1 0 0 1 16 6)"/>
</clipPath>
</defs>
</svg>
